<svg width="25" height="35" viewBox="0 0 25 35" fill="none" xmlns="http://www.w3.org/2000/svg">
<path d="M1 7C1 4.9 1 3.85 1.40875 3.0475C1.76827 2.34192 2.34192 1.76827 3.0475 1.40875C3.85 1 4.9 1 7 1H17.5C19.6 1 20.65 1 21.4525 1.40875C22.1581 1.76827 22.7317 2.34192 23.0912 3.0475C23.5 3.85 23.5 4.9 23.5 7V31.9469C23.5 32.8581 23.5 33.3138 23.3106 33.5631C23.2288 33.6716 23.1244 33.761 23.0046 33.8251C22.8848 33.8892 22.7525 33.9265 22.6169 33.9344C22.3037 33.9531 21.925 33.7 21.1675 33.1956L12.25 27.25L3.3325 33.1938C2.575 33.7 2.19625 33.9531 1.88125 33.9344C1.74594 33.9262 1.61402 33.8888 1.49457 33.8247C1.37513 33.7606 1.271 33.6713 1.18937 33.5631C1 33.3138 1 32.8581 1 31.9469V7Z" fill="#1B1B20" stroke="#1B1B20" stroke-width="1.5" stroke-linecap="round" stroke-linejoin="round"/>
</svg>
